<svg id="Logo" xmlns="http://www.w3.org/2000/svg" width="144.522" height="34.011" viewBox="0 0 144.522 34.011">
  <g id="Batige">
    <path id="Tracé_1295" data-name="Tracé 1295" d="M131.005,20.967a5.759,5.759,0,0,1-.678,2.855,5.9,5.9,0,0,1-1.855,2.016,8.774,8.774,0,0,1-2.748,1.214,13.073,13.073,0,0,1-3.319.41H110.057V2.124h14.1a5.006,5.006,0,0,1,2.391.571,5.972,5.972,0,0,1,1.821,1.481,6.794,6.794,0,0,1,1.16,2.07,7.071,7.071,0,0,1,.411,2.373,6.838,6.838,0,0,1-.91,3.426,5.748,5.748,0,0,1-2.73,2.427,6.558,6.558,0,0,1,3.444,2.284,6.7,6.7,0,0,1,1.267,4.211M115.91,7.12v5.246h5.746a2.558,2.558,0,0,0,1.713-.642,2.491,2.491,0,0,0,.749-2,2.651,2.651,0,0,0-.66-1.927,2.141,2.141,0,0,0-1.588-.678Zm9.136,12.669a3.038,3.038,0,0,0-.678-2,2.129,2.129,0,0,0-1.713-.821H115.91V22.5h6.5a2.564,2.564,0,0,0,1.891-.75,2.653,2.653,0,0,0,.75-1.963" transform="translate(-73.076 -1.41)" fill="#3b3b3b"/>
    <path id="Tracé_1296" data-name="Tracé 1296" d="M183.377,40.16a7.336,7.336,0,0,1-2.587-.446,5.923,5.923,0,0,1-3.408-3.14,5.614,5.614,0,0,1-.5-2.373,5.447,5.447,0,0,1,.589-2.534,5.814,5.814,0,0,1,1.66-1.963,8.194,8.194,0,0,1,2.534-1.285,10.713,10.713,0,0,1,3.248-.464,13.1,13.1,0,0,1,2.284.2,7.532,7.532,0,0,1,1.927.589v-.856q0-3.247-3.747-3.248a8.333,8.333,0,0,0-2.926.517,14.08,14.08,0,0,0-2.926,1.552l-1.677-3.569a15,15,0,0,1,3.854-1.82,14.554,14.554,0,0,1,4.247-.607,9.761,9.761,0,0,1,6.566,2,7.3,7.3,0,0,1,2.32,5.853v4.817a1.991,1.991,0,0,0,.267,1.2,1.328,1.328,0,0,0,.946.411V39.8a9.579,9.579,0,0,1-1.356.232q-.607.054-1.106.054a3.969,3.969,0,0,1-2.427-.625,2.762,2.762,0,0,1-1.035-1.766l-.107-.857a8.56,8.56,0,0,1-2.98,2.462,8.144,8.144,0,0,1-3.658.857m1.677-4.1a5.188,5.188,0,0,0,1.8-.321,4.193,4.193,0,0,0,1.446-.857,1.772,1.772,0,0,0,.821-1.356V31.738a9.251,9.251,0,0,0-1.624-.446,9.019,9.019,0,0,0-1.624-.161,4.4,4.4,0,0,0-2.587.714,2.177,2.177,0,0,0-1.017,1.856,2.112,2.112,0,0,0,.785,1.7,3,3,0,0,0,2,.66" transform="translate(-117.446 -13.751)" fill="#3b3b3b"/>
    <path id="Tracé_1297" data-name="Tracé 1297" d="M249.217,27.732a22.717,22.717,0,0,1-2.695.928,11.179,11.179,0,0,1-3.051.428,7.384,7.384,0,0,1-2.016-.267,4.508,4.508,0,0,1-1.66-.857,3.992,3.992,0,0,1-1.124-1.553,5.9,5.9,0,0,1-.41-2.32V14.313H235.87V9.995h2.391V4.035h5.71v5.96h3.819v4.318h-3.819v7.816a1.529,1.529,0,0,0,1.642,1.749,4.383,4.383,0,0,0,1.32-.214,8.153,8.153,0,0,0,1.178-.464Z" transform="translate(-156.613 -2.679)" fill="#3b3b3b"/>
    <path id="Tracé_1298" data-name="Tracé 1298" d="M280.254,0h5.71V5.175h-5.71Zm0,7.316h5.71V26.052h-5.71Z" transform="translate(-186.083)" fill="#3b3b3b"/>
    <path id="Tracé_1299" data-name="Tracé 1299" d="M312.634,39.874a7.615,7.615,0,0,1-3.39-.749,8,8,0,0,1-2.623-2.034,9.47,9.47,0,0,1-1.7-3,10.912,10.912,0,0,1-.607-3.676,11.143,11.143,0,0,1,.642-3.837,9.552,9.552,0,0,1,1.784-3.069,8.207,8.207,0,0,1,6.281-2.8,7.375,7.375,0,0,1,3.729.91,7,7,0,0,1,2.552,2.516V21.067h4.96V38.518a8.972,8.972,0,0,1-.8,3.854,8.4,8.4,0,0,1-2.23,2.909,10.076,10.076,0,0,1-3.426,1.838,14.281,14.281,0,0,1-4.39.643,12.555,12.555,0,0,1-5.175-.964,10.947,10.947,0,0,1-3.747-2.784l3.069-3.105a7.472,7.472,0,0,0,2.57,1.874,7.848,7.848,0,0,0,3.283.7,6.657,6.657,0,0,0,1.963-.285,4.762,4.762,0,0,0,1.641-.875,4.033,4.033,0,0,0,1.124-1.535,5.679,5.679,0,0,0,.41-2.266V36.7a5.583,5.583,0,0,1-2.462,2.373,7.632,7.632,0,0,1-3.462.8m1.963-4.532a3.983,3.983,0,0,0,2.355-.732,4.994,4.994,0,0,0,1.606-1.874V28.811a5.165,5.165,0,0,0-1.749-2.373,4.123,4.123,0,0,0-2.5-.874,3.537,3.537,0,0,0-1.7.411,4.2,4.2,0,0,0-1.32,1.106,5.181,5.181,0,0,0-.857,1.606,5.886,5.886,0,0,0-.3,1.874,5.226,5.226,0,0,0,.339,1.909,4.6,4.6,0,0,0,.946,1.516,4.347,4.347,0,0,0,1.41,1,4.291,4.291,0,0,0,1.766.357" transform="translate(-202.063 -13.751)" fill="#3b3b3b"/>
    <path id="Tracé_1300" data-name="Tracé 1300" d="M380.477,40.16a11.071,11.071,0,0,1-4.228-.767,9.388,9.388,0,0,1-3.176-2.088,8.926,8.926,0,0,1-1.981-3.052,9.833,9.833,0,0,1-.678-3.622,10.8,10.8,0,0,1,.678-3.836,9.294,9.294,0,0,1,1.963-3.158,9.17,9.17,0,0,1,3.158-2.141,10.96,10.96,0,0,1,4.265-.785,10.83,10.83,0,0,1,4.247.785,9.334,9.334,0,0,1,3.14,2.124,9.011,9.011,0,0,1,1.945,3.087,10.318,10.318,0,0,1,.66,3.676q0,.5-.036.981a6.93,6.93,0,0,1-.107.839H376.48a3.849,3.849,0,0,0,1.374,2.873,4.373,4.373,0,0,0,2.8.981,5.126,5.126,0,0,0,2.409-.607,3.1,3.1,0,0,0,1.552-1.641l4.853,1.356a8.738,8.738,0,0,1-3.426,3.6,10.631,10.631,0,0,1-5.567,1.391m3.962-11.491a4.3,4.3,0,0,0-1.285-2.819,3.869,3.869,0,0,0-2.748-1.035,3.814,3.814,0,0,0-2.765,1.053,4.363,4.363,0,0,0-1.267,2.8Z" transform="translate(-245.948 -13.751)" fill="#3b3b3b"/>
  </g>
  <g id="Picto">
    <path id="Tracé_1301" data-name="Tracé 1301" d="M11.55,13.4H2.128A2.128,2.128,0,0,1,0,11.271V1.849H9.422A2.128,2.128,0,0,1,11.55,3.977Z" transform="translate(0 -1.228)" fill="#ea5e2d"/>
    <path id="Tracé_1303" data-name="Tracé 1303" d="M11.55,43.161H2.118A2.118,2.118,0,0,0,0,45.279v9.432H9.432a2.118,2.118,0,0,0,2.118-2.118Z" transform="translate(0 -28.658)" fill="#ea5e2d"/>
    <path id="Tracé_1302" data-name="Tracé 1302" d="M52.861,54.71H43.438a2.127,2.127,0,0,1-2.127-2.127V43.16h9.423a2.127,2.127,0,0,1,2.127,2.127Z" transform="translate(-27.43 -28.657)" fill="#296f28"/>
    <path id="Tracé_1304" data-name="Tracé 1304" d="M52.861,1.849H43.431a2.12,2.12,0,0,0-2.12,2.12V13.4h9.43a2.12,2.12,0,0,0,2.12-2.12Z" transform="translate(-27.43 -1.228)" fill="#296f28"/>
  </g>
</svg>
